<svg xmlns="http://www.w3.org/2000/svg" width="188.863" height="86.188" viewBox="0 0 188.863 86.188">
  <g id="Group_3" data-name="Group 3" transform="translate(-102.985 -68.085)">
    <g id="Group_1" data-name="Group 1" transform="translate(148.666 68.085)">
      <path id="Path_1" data-name="Path 1" d="M232.88,123.562,201.379,69.1a1.96,1.96,0,0,0-1.7-.977H197.9a1.958,1.958,0,0,0-1.689.967l-11.826,20.16-7.211,12.489L164.47,123.557a1.958,1.958,0,0,0,1.692,2.943h9.89a1.958,1.958,0,0,0,1.692-.973l4.953-8.5a1.958,1.958,0,0,1,3.383,0l4.954,8.5a1.958,1.958,0,0,0,1.692.973h9.9a1.959,1.959,0,0,0,1.694-2.941L192.17,102.616a1.957,1.957,0,0,1,0-1.966l4.8-8.263a1.958,1.958,0,0,1,3.387,0l19.231,33.138a1.96,1.96,0,0,0,1.693.975h9.9A1.958,1.958,0,0,0,232.88,123.562Z" transform="translate(-135.644 -68.076)" fill="#b0d9cd"/>
      <path id="Path_2" data-name="Path 2" d="M176.81,92.415l2.06,3.579a1.959,1.959,0,0,0,3.364.051l5.115-8.295a1.959,1.959,0,0,0,.033-2l-9.563-16.679a1.955,1.955,0,0,0-1.71-.984l-1.761.011a1.956,1.956,0,0,0-1.68.971l-31.747,54.5a1.958,1.958,0,0,0,1.692,2.943H152.5a1.96,1.96,0,0,0,1.694-.975l19.223-33.125A1.959,1.959,0,0,1,176.81,92.415Z" transform="translate(-140.653 -68.085)" fill="#b0d9cd"/>
    </g>
    <g id="Group_2" data-name="Group 2" transform="translate(102.985 133.745)">
      <path id="Path_3" data-name="Path 3" d="M103.97,142.274c-.683,0-.985-.3-.985-.986V123.552c0-.685.3-.985.985-.985h4.407a1.293,1.293,0,0,1,1.259.821l2.464,4.46c.192.329.273.466.492.466h.246c.219,0,.3-.137.492-.466l2.436-4.46a1.294,1.294,0,0,1,1.259-.821h4.435c.684,0,.985.3.985.985v17.736c0,.684-.3.986-.985.986h-4.215c-.712,0-.986-.3-.986-.986v-9.635l-1.614,2.983a1.437,1.437,0,0,1-1.45.877h-1.1a1.435,1.435,0,0,1-1.45-.877l-1.615-2.983v9.635c0,.684-.3.986-.985.986Z" transform="translate(-102.985 -122.156)" fill="#fff"/>
      <path id="Path_4" data-name="Path 4" d="M129.836,142.756c-6.842,0-8.511-2.245-8.511-5.583v-9.333c0-3.34,1.669-5.611,8.511-5.611s8.485,2.271,8.485,5.611v9.333C138.321,140.511,136.679,142.756,129.836,142.756Zm0-5.283c2,0,2.3-.547,2.3-1.287v-7.362c0-.712-.3-1.259-2.3-1.259-1.971,0-2.3.547-2.3,1.259v7.362C127.538,136.926,127.865,137.473,129.836,137.473Z" transform="translate(-99.084 -122.228)" fill="#fff"/>
      <path id="Path_5" data-name="Path 5" d="M138.619,142.274c-.683,0-.984-.3-.984-.986V123.552c0-.685.3-.985.984-.985h2.847a1.866,1.866,0,0,1,1.615.739l5.309,6.076v-5.83c0-.685.3-.985.986-.985h4.105c.684,0,.986.3.986.985v17.736c0,.684-.3.986-.986.986h-4.105c-.685,0-.986-.3-.986-.986v-3.367l-4.68-5.666v9.032c0,.684-.3.986-.986.986Z" transform="translate(-95.614 -122.156)" fill="#fff"/>
      <path id="Path_6" data-name="Path 6" d="M162.4,142.684c-6.788,0-8.458-2.245-8.458-5.583V123.552c0-.685.3-.985.985-.985h4.3c.684,0,.985.3.985.985v12.481c0,.739.329,1.287,2.245,1.287,1.944,0,2.271-.548,2.271-1.287V123.552c0-.685.274-.985.986-.985h4.16c.684,0,.986.3.986.985V137.1C170.859,140.439,169.189,142.684,162.4,142.684Z" transform="translate(-92.145 -122.156)" fill="#fff"/>
      <path id="Path_7" data-name="Path 7" d="M171.3,142.274c-.683,0-.984-.3-.984-.986V123.552c0-.685.3-.985.984-.985h4.407a1.293,1.293,0,0,1,1.259.821l2.464,4.46c.192.329.273.466.492.466h.246c.22,0,.3-.137.492-.466l2.436-4.46a1.294,1.294,0,0,1,1.259-.821H188.8c.684,0,.985.3.985.985v17.736c0,.684-.3.986-.985.986H184.58c-.712,0-.986-.3-.986-.986v-9.635l-1.614,2.983a1.437,1.437,0,0,1-1.45.877h-1.1a1.435,1.435,0,0,1-1.45-.877l-1.615-2.983v9.635c0,.684-.3.986-.985.986Z" transform="translate(-88.661 -122.156)" fill="#fff"/>
      <path id="Path_8" data-name="Path 8" d="M189.894,142.274c-.684,0-.985-.3-.985-.986V123.552c0-.685.3-.985.985-.985h12.7c.685,0,.986.3.986.985v3.2c0,.685-.3.986-.986.986h-7.554v2.108h5.337c.685,0,.986.3.986.986v2.928c0,.684-.3.986-.986.986h-5.337V137.1h7.554c.685,0,.986.3.986.985v3.2c0,.684-.3.986-.986.986Z" transform="translate(-84.707 -122.156)" fill="#fff"/>
      <path id="Path_9" data-name="Path 9" d="M204.082,142.274c-.683,0-.984-.3-.984-.986V123.552c0-.685.3-.985.984-.985h2.847a1.866,1.866,0,0,1,1.615.739l5.309,6.076v-5.83c0-.685.3-.985.986-.985h4.105c.685,0,.986.3.986.985v17.736c0,.684-.3.986-.986.986H214.84c-.685,0-.986-.3-.986-.986v-3.367l-4.68-5.666v9.032c0,.684-.3.986-.986.986Z" transform="translate(-81.689 -122.156)" fill="#fff"/>
      <path id="Path_10" data-name="Path 10" d="M224.588,142.274c-.684,0-.985-.3-.985-.986V127.848H219.58c-.684,0-.986-.3-.986-.985v-3.312c0-.685.3-.985.986-.985h14.452c.683,0,.985.3.985.985v3.312c0,.684-.3.985-.985.985h-4.024v13.439c0,.684-.3.986-.986.986Z" transform="translate(-78.393 -122.156)" fill="#fff"/>
      <path id="Path_11" data-name="Path 11" d="M237.52,142.274H233.5c-.684,0-.985-.3-.985-.986v-7.227a12.693,12.693,0,0,1,1.067-4.379l2.381-6.213a1.287,1.287,0,0,1,1.4-.9h7.362a1.273,1.273,0,0,1,1.369.9l2.382,6.213a12.721,12.721,0,0,1,1.067,4.379v7.227c0,.684-.3.986-.986.986h-4.133c-.739,0-1.067-.3-1.067-.986v-3.832h-4.845v3.832C238.506,141.972,238.206,142.274,237.52,142.274Zm1.26-9.8h4.3l-1.287-4.161c-.136-.329-.3-.466-.519-.466h-.684c-.22,0-.383.137-.52.466Z" transform="translate(-75.432 -122.156)" fill="#fff"/>
      <path id="Path_12" data-name="Path 12" d="M249.74,142.274a.985.985,0,0,1-.985-.985V123.552a.984.984,0,0,1,.985-.985h4.243a.984.984,0,0,1,.985.985V137.1h4.821a1.051,1.051,0,0,1,1.051,1.051v3.071a1.052,1.052,0,0,1-1.051,1.051Z" transform="translate(-71.977 -122.156)" fill="#fff"/>
    </g>
  </g>
</svg>
